# xmcd
#
# Track frame offsets:
#	150
#	16089
#	30514
#	45407
#	60867
#	73363
#	91791
#	106136
#	125943
#	138136
#	150350
#	166152
#	179261
#	190296
#	205990
#	216910
#	231627
#	241825
#	255603
#	274967
#
# Disc length: 3838 seconds
#
# Revision: 1
# Processed by: cddbd v1.5.2PL0 Copyright (c) Steve Scherf et al.
# Submitted via: audiograbber 1.83.01
#
DISCID=120efc14
DTITLE=Diverse - The Best Of Country and Irish - CD1
DYEAR=2012
DGENRE=Country
TTITLE0=Daniel O'Donnell - My Donegal Shore
TTITLE1=Philomena Begley - Blanket On The Ground
TTITLE2=Seán Wilson - My Own Donegal
TTITLE3=Margo - Isle Of Innsfree
TTITLE4=Seán O'Farrell - I Can't Stop Loving You
TTITLE5=Donna Taggart - Dannyboy
TTITLE6=Brendan Quinn - It's Four In The Morning
TTITLE7=Seán Dunphy - Moonlight In Mayo
TTITLE8=Daniel O'Donnell - The Old Rustic Bridge
TTITLE9=Susan McCann - What I've Got In Mind
TTITLE10=Seán Murray - The Galway Girl
TTITLE11=The Duets (Tommy and Kathleen Moran) - Waltzing Through Ireland
TTITLE12=Seán Dunphy - I'm Going To Be A Country Boy Again
TTITLE13=Seán Wilson - Four Country Roads
TTITLE14=The Clancy Brothers - The Rising Of The Moon
TTITLE15=Johnny McEvoy - Take These Chains From My Heart
TTITLE16=Cotton Mill Boys - Does My Ring Hurt Your Finger
TTITLE17=Seán O'Farrell - Tie A Yellow Ribbon
TTITLE18=Seán Murray - Sweet Sixteen
TTITLE19=Margo - When Irish Eyes Are Smiling
EXTD=
EXTT0=
EXTT1=
EXTT2=
EXTT3=
EXTT4=
EXTT5=
EXTT6=
EXTT7=
EXTT8=
EXTT9=
EXTT10=
EXTT11=
EXTT12=
EXTT13=
EXTT14=
EXTT15=
EXTT16=
EXTT17=
EXTT18=
EXTT19=
PLAYORDER=
